<?xml version="1.0" encoding="utf-8"?>
<!-- Generator: Adobe Illustrator 22.1.0, SVG Export Plug-In . SVG Version: 6.00 Build 0)  -->
<svg version="1.1" id="Light" xmlns="http://www.w3.org/2000/svg" xmlns:xlink="http://www.w3.org/1999/xlink" x="0px" y="0px"
	 viewBox="0 0 24 24" style="enable-background:new 0 0 24 24;" xml:space="preserve">
<g>
	<title>christmas-bells</title>
	<path d="M18.002,23.496c-0.872,0-1.693-0.463-2.143-1.207c-0.047-0.079-0.091-0.162-0.13-0.248l-0.809,0.313
		c-0.058,0.022-0.119,0.034-0.181,0.034c-0.205,0-0.392-0.128-0.466-0.32c-0.099-0.257,0.029-0.547,0.286-0.647l7.8-3.02
		c0.513-0.2,0.769-0.781,0.569-1.294c-0.107-0.274-0.328-0.487-0.606-0.583c-0.973-0.385-1.717-1.162-2.051-2.134l-1.085-2.803
		c-0.382-0.985-1.086-1.832-1.987-2.395c-0.058,0.004-0.115,0.006-0.174,0.006c-0.104,0-0.209-0.006-0.316-0.018l1.284,4.295
		c0.057,0.196,0.034,0.399-0.062,0.575c-0.097,0.176-0.256,0.303-0.449,0.359c-0.07,0.02-0.14,0.03-0.21,0.03
		c-0.121,0-0.242-0.03-0.349-0.086l-0.776-0.419l-0.416,0.771c-0.094,0.176-0.252,0.305-0.444,0.363
		c-0.071,0.021-0.144,0.032-0.217,0.032c-0.123,0-0.245-0.031-0.354-0.09c-0.175-0.094-0.307-0.257-0.364-0.447l-1.852-6.199
		l-1.852,6.199c-0.057,0.19-0.189,0.353-0.365,0.447c-0.108,0.058-0.23,0.089-0.353,0.089c-0.073,0-0.146-0.011-0.217-0.032
		c-0.192-0.058-0.35-0.187-0.444-0.364l-0.415-0.77l-0.772,0.416C7.97,14.409,7.848,14.44,7.726,14.44c-0.07,0-0.14-0.01-0.208-0.03
		c-0.193-0.056-0.353-0.184-0.45-0.36c-0.097-0.176-0.119-0.379-0.063-0.571L8.29,9.181C8.184,9.193,8.079,9.199,7.975,9.199
		c-0.49,0-0.973-0.123-1.406-0.357C5.963,9.3,5.484,9.903,5.179,10.594l-1.322,2.983c-0.373,0.94-1.146,1.677-2.119,2.01
		c-0.278,0.082-0.489,0.249-0.618,0.486c-0.128,0.234-0.158,0.505-0.083,0.761c0.083,0.283,0.285,0.514,0.554,0.634l9.146,4.042
		c0.128,0.056,0.262,0.085,0.401,0.085c0.397,0,0.757-0.234,0.917-0.597c0.119-0.27,0.113-0.576-0.016-0.841
		c-0.415-0.961-0.392-2.036,0.059-2.959l0.692-1.563c0.08-0.181,0.26-0.297,0.457-0.297c0.07,0,0.138,0.014,0.202,0.043
		c0.122,0.054,0.216,0.153,0.264,0.277c0.048,0.125,0.045,0.26-0.01,0.383l-0.7,1.58c-0.329,0.675-0.348,1.445-0.057,2.12
		c0.25,0.512,0.261,1.122,0.023,1.662c-0.32,0.725-1.039,1.194-1.833,1.194c-0.278,0-0.548-0.057-0.804-0.17l-3.074-1.358
		C7.067,21.475,6.77,21.82,6.39,22.074c-0.413,0.276-0.892,0.422-1.385,0.422c-0.165,0-0.33-0.016-0.492-0.049
		c-0.655-0.13-1.22-0.508-1.591-1.062c-0.371-0.555-0.504-1.222-0.374-1.877c0.031-0.158,0.078-0.313,0.14-0.462l-1.502-0.664
		c-0.54-0.24-0.944-0.701-1.11-1.268c-0.15-0.512-0.091-1.053,0.165-1.522c0.257-0.469,0.68-0.809,1.193-0.959
		c0.678-0.233,1.228-0.761,1.499-1.445l1.33-3C4.603,9.423,5.117,8.742,5.76,8.204C5.274,7.66,4.999,6.953,4.999,6.224v-2.75
		c0-1.641,1.335-2.975,2.975-2.975c0.786,0,1.554,0.32,2.108,0.876l1.448,1.448c0.31-0.126,0.635-0.19,0.968-0.19
		s0.658,0.064,0.968,0.19l1.449-1.449c0.562-0.564,1.311-0.875,2.108-0.875c1.64,0,2.975,1.335,2.975,2.975v2.75
		c0,1.106-0.621,2.114-1.582,2.625c0.758,0.641,1.342,1.455,1.7,2.377l1.091,2.822c0.245,0.71,0.775,1.268,1.459,1.539
		c0.539,0.185,0.977,0.608,1.19,1.157c0.194,0.498,0.181,1.041-0.034,1.531c-0.215,0.49-0.608,0.866-1.105,1.059l-2.341,0.906
		c0.346,1.087-0.094,2.296-1.088,2.897C18.902,23.372,18.456,23.496,18.002,23.496L18.002,23.496z M16.664,21.678
		c0.016,0.033,0.033,0.064,0.051,0.093c0.274,0.454,0.755,0.725,1.287,0.725c0.272,0,0.539-0.074,0.772-0.216
		c0.581-0.351,0.846-1.042,0.671-1.679L16.664,21.678z M3.604,19.451c-0.032,0.082-0.057,0.167-0.074,0.253
		c-0.078,0.393,0.001,0.793,0.224,1.126c0.223,0.333,0.562,0.559,0.955,0.638c0.098,0.019,0.197,0.029,0.296,0.029
		c0.295,0,0.583-0.088,0.83-0.253c0.222-0.148,0.396-0.347,0.51-0.581L3.604,19.451z M15.137,13.699l0.367-0.68
		c0.063-0.118,0.169-0.203,0.297-0.242c0.047-0.014,0.095-0.021,0.143-0.021c0.083,0,0.166,0.021,0.238,0.061l0.68,0.367
		L15.554,8.81c-0.232-0.132-0.445-0.294-0.633-0.483L13.97,7.376c-0.193,0.132-0.405,0.239-0.628,0.315L15.137,13.699z
		 M9.055,12.757c0.048,0,0.097,0.007,0.143,0.021c0.128,0.039,0.234,0.124,0.297,0.242l0.366,0.679l1.795-6.007
		c-0.223-0.076-0.435-0.183-0.628-0.315l-0.951,0.951C9.889,8.516,9.677,8.678,9.445,8.81l-1.307,4.374l0.681-0.367
		C8.89,12.777,8.972,12.757,9.055,12.757z M15.628,7.62c0.373,0.373,0.869,0.578,1.396,0.578c1.089,0,1.975-0.886,1.975-1.975v-2.75
		c0-1.089-0.886-1.975-1.975-1.975c-0.529,0-1.026,0.207-1.4,0.582l-1.302,1.303c0.315,0.31,0.546,0.695,0.671,1.115h1.707
		c0.276,0,0.5,0.224,0.5,0.5s-0.224,0.5-0.5,0.5h-1.614c-0.042,0.417-0.184,0.812-0.416,1.163L15.628,7.62z M7.974,1.499
		c-1.089,0-1.975,0.886-1.975,1.975v2.75c0,1.089,0.886,1.975,1.975,1.975c0.527,0,1.023-0.206,1.396-0.579l0.958-0.958
		c-0.233-0.351-0.374-0.746-0.416-1.163H8.3c-0.276,0-0.5-0.224-0.5-0.5s0.224-0.5,0.5-0.5h1.706
		c0.125-0.421,0.356-0.806,0.671-1.115L9.375,2.081C9.006,1.711,8.496,1.499,7.974,1.499L7.974,1.499z M11.373,6.367
		c0.3,0.3,0.7,0.466,1.127,0.466c0.425,0,0.825-0.166,1.127-0.466c0.008-0.01,0.016-0.019,0.024-0.027
		c0.003-0.003,0.007-0.006,0.01-0.009C13.943,6.035,14.1,5.645,14.1,5.234c0-0.882-0.718-1.6-1.6-1.6c-0.882,0-1.6,0.718-1.6,1.6
		c0,0.41,0.156,0.799,0.44,1.099c0.005,0.004,0.01,0.008,0.014,0.013C11.36,6.352,11.366,6.359,11.373,6.367z"/>
</g>
</svg>
