<?xml version="1.0" encoding="utf-8"?>
<!-- Generator: Adobe Illustrator 22.1.0, SVG Export Plug-In . SVG Version: 6.00 Build 0)  -->
<svg version="1.1" id="Layer_1" xmlns="http://www.w3.org/2000/svg" xmlns:xlink="http://www.w3.org/1999/xlink" x="0px" y="0px"
	 viewBox="0 0 24 24" style="enable-background:new 0 0 24 24;" xml:space="preserve">
<g>
	<title>dating-search</title>
	<path d="M23.5,24c-0.134,0-0.259-0.052-0.354-0.146l-5.589-5.589C15.617,20.031,13.121,21,10.5,21C4.71,21,0,16.29,0,10.5
		C0,4.71,4.71,0,10.5,0C16.29,0,21,4.71,21,10.5c0,2.621-0.969,5.117-2.736,7.057l5.589,5.589C23.948,23.241,24,23.366,24,23.5
		s-0.052,0.259-0.146,0.354S23.634,24,23.5,24z M10.5,1C5.262,1,1,5.262,1,10.5S5.262,20,10.5,20s9.5-4.262,9.5-9.5S15.738,1,10.5,1
		z"/>
	<path d="M10.5,15.292c-0.259,0-0.505-0.098-0.692-0.277L6,11.046c-0.896-0.893-1.118-2.262-0.547-3.401
		C5.956,6.64,6.968,6.016,8.095,6.016c0.459,0,0.902,0.105,1.315,0.311c0.284,0.142,0.542,0.328,0.766,0.552l0.323,0.323L10.82,6.88
		c0.556-0.556,1.297-0.863,2.085-0.863s1.529,0.306,2.085,0.862c0.225,0.225,0.41,0.483,0.552,0.766
		c0.571,1.137,0.35,2.507-0.55,3.408l-3.772,3.931C11.031,15.182,10.775,15.292,10.5,15.292z M8.094,7.016
		c-0.745,0-1.414,0.413-1.747,1.077c-0.377,0.753-0.23,1.659,0.367,2.253l3.786,3.946l3.779-3.938
		c0.601-0.601,0.748-1.508,0.37-2.26c-0.094-0.188-0.217-0.358-0.365-0.507c-0.367-0.367-0.857-0.57-1.378-0.57
		c-0.521,0-1.011,0.202-1.378,0.57l-0.676,0.676c-0.091,0.091-0.22,0.144-0.354,0.144s-0.262-0.052-0.354-0.144L9.469,7.587
		C9.32,7.438,9.15,7.316,8.962,7.222C8.689,7.085,8.397,7.016,8.094,7.016z"/>
</g>
</svg>
