<svg xmlns="http://www.w3.org/2000/svg" viewBox="0 0 140 140">
  <g transform="scale(5.83333)">
    <path d="M17 19.7c3.848.325 6.5 1.01 6.5 1.8 0 1.1-5.148 2-11.5 2S.5 22.6.5 21.5c0-.79 2.635-1.473 6.458-1.8M18.25 4.75a2.25 2.25 0 104.5 0 2.25 2.25 0 10-4.5 0zM20.5 8a3 3 0 00-3 3v2.5H19l.5 4.5h2l.5-4.5h1.5V11a3 3 0 00-3-3zM1.25 4.75a2.25 2.25 0 104.5 0 2.25 2.25 0 10-4.5 0zM3.5 8a3 3 0 00-3 3v2.5H2l.5 4.5h2l.5-4.5h1.5V11a3 3 0 00-3-3zM9.25 3.25a2.75 2.75 0 105.5 0 2.75 2.75 0 10-5.5 0zM15.5 10.5a3.5 3.5 0 00-7 0v3h1.583l.417 5h3l.417-5H15.5z" fill="none" stroke="currentColor" stroke-linecap="round" stroke-linejoin="round"/>
  </g>
</svg>