<?xml version="1.0" encoding="utf-8"?>
<!-- Generator: Adobe Illustrator 22.1.0, SVG Export Plug-In . SVG Version: 6.00 Build 0)  -->
<svg version="1.1" id="Layer_1" xmlns="http://www.w3.org/2000/svg" xmlns:xlink="http://www.w3.org/1999/xlink" x="0px" y="0px"
	 viewBox="0 0 24 24" style="enable-background:new 0 0 24 24;" xml:space="preserve">
<g>
	<title>read-human</title>
	<path d="M12,7.501c-2.068,0-3.75-1.682-3.75-3.75s1.682-3.75,3.75-3.75c2.068,0,3.75,1.682,3.75,3.75S14.068,7.501,12,7.501z
		 M12,1.001c-1.516,0-2.75,1.234-2.75,2.75s1.234,2.75,2.75,2.75s2.75-1.234,2.75-2.75S13.516,1.001,12,1.001z"/>
	<path d="M14.5,17.334c-0.551,0-1-0.448-1-1v-1.456c0.001-0.444,0.287-0.829,0.712-0.957l3.644-1.1
		c0.047-0.014,0.096-0.022,0.145-0.022c0.219,0,0.416,0.146,0.478,0.356c0.039,0.127,0.025,0.262-0.038,0.38
		c-0.063,0.118-0.168,0.204-0.296,0.242l-3.644,1.1l0,1.456l3.355-1.013C17.903,15.307,17.951,15.3,18,15.3
		c0.219,0,0.416,0.146,0.478,0.356c0.039,0.127,0.025,0.262-0.038,0.38c-0.063,0.118-0.168,0.204-0.296,0.242l-3.356,1.013
		C14.694,17.32,14.597,17.334,14.5,17.334z"/>
	<path d="M12,24c-0.049,0-0.093-0.007-0.134-0.018l-8.268-2.3c-0.644-0.179-1.095-0.771-1.098-1.439v-3.309
		C1.631,16.709,1,15.913,1,15s0.631-1.709,1.5-1.934v-2.249c0-0.401,0.156-0.778,0.44-1.061C3.223,9.473,3.6,9.317,4,9.317
		c0.137,0,0.272,0.019,0.402,0.055l3.167,0.879c1.11-1.281,2.7-2.096,4.387-2.243C11.964,8.008,11.992,8.007,12,8.007
		c0.014,0,0.028,0,0.041,0.002c1.69,0.148,3.28,0.962,4.391,2.243l3.167-0.879c0.129-0.036,0.264-0.055,0.401-0.055
		c0.401,0,0.778,0.156,1.061,0.439c0.283,0.283,0.439,0.66,0.44,1.061v2.249C22.369,13.291,23,14.087,23,15s-0.631,1.709-1.5,1.934
		v3.307c-0.003,0.669-0.454,1.261-1.098,1.441l-8.268,2.3c-0.042,0.011-0.086,0.018-0.131,0.018C12.002,24,12.002,24,12,24L12,24z
		 M12.5,22.841l7.634-2.124c0.214-0.06,0.365-0.257,0.366-0.479V17H20c-0.552,0-1-0.448-1-1v-2c0-0.552,0.448-1,1-1h0.5v-2.183
		c0-0.133-0.052-0.259-0.146-0.353c-0.094-0.094-0.22-0.146-0.354-0.146l0,0c-0.046,0-0.091,0.006-0.134,0.018L12.5,12.38V22.841z
		 M3.5,20.241c0.001,0.221,0.151,0.417,0.366,0.477l7.634,2.124V12.38l-7.366-2.045C4.091,10.323,4.046,10.317,4,10.317
		c-0.133,0-0.259,0.052-0.353,0.146C3.552,10.558,3.5,10.683,3.5,10.817V13H4c0.551,0,1,0.448,1,1v2c0,0.552-0.449,1-1,1H3.5V20.241
		z M20,16h1c0.552,0,1-0.448,1-1s-0.448-1-1-1h-1L20,16z M3,14c-0.551,0-1,0.448-1,1s0.449,1,1,1h1v-2H3z M12,11.481l3.343-0.928
		C14.436,9.673,13.264,9.129,12,9.009c-1.264,0.12-2.436,0.664-3.342,1.544L12,11.481z"/>
</g>
</svg>
