<?xml version="1.0" encoding="UTF-8"?>
<svg width="1184px" height="432px" viewBox="0 0 1184 432" version="1.1" xmlns="http://www.w3.org/2000/svg" xmlns:xlink="http://www.w3.org/1999/xlink">
    <!-- Generator: sketchtool 58 (101010) - https://sketch.com -->
    <title>2f9dbbcc-73bc-4ad9-ab4f-eadd6c49a5a0@1.50x</title>
    <desc>Created with sketchtool.</desc>
    <g id="Logo" stroke="none" stroke-width="1" fill="none" fill-rule="evenodd">
        <g id="Logo-/-Wordmark-/-Transparent-/-Beta">
            <rect id="Rectangle" x="0" y="0" width="1184" height="432"></rect>
            <g id="Group-2" transform="translate(128.000000, 120.000000)">
                <g id="Group" fill="#FFFFFF">
                    <path d="M47.8297104,102.280957 C47.8297104,106.161291 50.7479987,109.397067 54.5916706,109.740831 C57.5884822,110.008647 61.0902293,110.250481 64.0174632,110.250481 C76.0385048,110.250481 87.8100605,108.275838 87.8100605,89.2888841 C87.8100605,70.7905946 76.0385048,68.3282865 64.0174632,68.3282865 C60.6210767,68.3282865 57.3061955,68.5331457 54.5698033,68.7749795 C50.7430288,69.1137468 47.8297104,72.3665117 47.8297104,76.2288578 L47.8297104,102.280957 Z M130,89.2888841 C130,138.114335 99.0925842,148.224389 69.905726,148.224389 C66.3791297,148.224389 60.8397495,148.03352 55.8053047,147.708743 C51.4934742,147.431933 47.8297104,150.833596 47.8297104,155.177611 L47.8297104,184.381544 C47.8297104,188.516703 44.4959438,191.8684 40.3829068,191.8684 L7.4477976,191.8684 C3.33476057,191.8684 0,188.516703 0,184.381544 L0,41.5726707 C0,37.9101872 2.60518851,34.7943282 6.1983806,34.1907429 C17.1031968,32.3580022 40.3640214,28.8684 59.3587381,28.8684 C94.6773811,28.8684 130,40.9510978 130,89.2888841 L130,89.2888841 Z" id="Fill-1"></path>
                    <path d="M222.051004,88.4937093 C222.051004,74.5075129 215.638548,67.6377112 205.035063,67.6377112 C194.430578,67.6377112 188.02112,74.5075129 188.02112,88.4937093 C188.02112,102.479906 194.430578,109.350702 205.035063,109.350702 C215.638548,109.350702 222.051004,102.479906 222.051004,88.4937093 M268.9058,88.2471163 C268.9058,124.56688 245.232576,147.6273 205.281888,147.6273 C165.087372,147.6273 141.9058,125.546292 141.9058,88.2471163 C141.9058,51.441127 165.087372,28.6273 205.281888,28.6273 C244.737927,28.6273 268.9058,50.2161168 268.9058,88.2471163" id="Fill-3"></path>
                    <path d="M323.278926,104.265619 C304.779092,96.8787606 279.6172,89.2372865 279.6172,65.3393326 C279.6172,36.2601937 311.685044,27.6372 338.078393,27.6372 C346.981463,27.6372 360.857337,29.1658942 372.96999,31.3785568 C375.754761,31.8877887 377.788863,34.2851726 377.788863,37.111909 L377.788863,56.3359128 C377.788863,60.2410226 374.029522,63.0617679 370.295171,61.905512 C357.368877,57.9045468 332.282951,51.1846825 332.650789,59.423256 C332.898679,63.3673071 340.296414,65.8275962 349.424384,69.5240207 C367.429436,76.9178683 390.6172,85.294234 390.6172,108.703924 C390.6172,140.242354 355.343771,147.6372 327.471075,147.6372 C311.058321,147.6372 293.404114,143.227851 285.538586,141.002208 C283.032692,140.293277 281.343438,138.016711 281.343438,135.414636 L281.343438,114.350408 C281.343438,110.464269 285.056799,107.663494 288.787152,108.763834 C303.690573,113.158206 335.938338,121.744255 337.830502,114.372374 C339.064957,109.687441 331.172441,107.227152 323.278926,104.265619" id="Fill-5"></path>
                    <path d="M410.120724,144.897628 L451.321276,144.897628 C453.198382,144.897628 454.721,143.361902 454.721,141.468636 L454.721,38.332966 C454.721,35.5782196 451.663914,33.9478799 449.406647,35.4985451 L408.207083,63.8039121 C407.276924,64.4423041 406.721,65.503967 406.721,66.6383329 L406.721,141.468636 C406.721,143.361902 408.242631,144.897628 410.120724,144.897628" id="Fill-7"></path>
                    <path d="M541.065193,148 C497.385676,148 489.286637,118.697585 489.286637,98.2588432 L489.286637,76.2044422 C489.286637,73.4221947 487.039113,71.1678556 484.2675,71.1678556 L475.164037,71.1678556 C472.391429,71.1678556 470.1449,68.9125187 470.1449,66.1302712 L470.1449,36.8059013 C470.1449,34.0236538 472.391429,31.7693148 475.164037,31.7693148 L484.2675,31.7693148 C487.039113,31.7693148 489.286637,29.5139779 489.286637,26.7317303 L489.286637,5.03658652 C489.286637,2.25533694 491.533165,1.42108547e-14 494.305773,1.42108547e-14 L532.856761,1.42108547e-14 C535.629369,1.42108547e-14 537.876892,2.25533694 537.876892,5.03658652 L537.876892,26.7317303 C537.876892,29.5139779 540.123421,31.7693148 542.896029,31.7693148 L564.269377,31.7693148 C567.040991,31.7693148 569.288514,34.0236538 569.288514,36.8059013 L569.288514,66.1302712 C569.288514,68.9125187 567.040991,71.1678556 564.269377,71.1678556 L542.896029,71.1678556 C540.123421,71.1678556 537.876892,73.4221947 537.876892,76.2044422 L537.876892,98.0123528 C537.876892,101.706714 537.876892,110.078405 551.617612,110.078405 C559.856873,110.078405 566.655133,109.067496 571.160124,108.14141 C574.271849,107.500735 577.1449,109.889795 577.1449,113.077205 L577.1449,140.649198 C577.1449,143.18296 575.307102,145.318544 572.803004,145.641876 C566.098225,146.503095 552.773197,148 541.065193,148" id="Fill-9"></path>
                    <path d="M597.08238,144.427959 L637.018032,144.427959 C639.245676,144.427959 641.0507,142.615243 641.0507,140.378106 L641.0507,39.4847945 C641.0507,36.2391603 637.440653,34.3124059 634.76274,36.1280967 L594.827088,63.2047977 C593.716228,63.9574517 593.0507,65.2158415 593.0507,66.5614955 L593.0507,140.378106 C593.0507,142.615243 594.855724,144.427959 597.08238,144.427959" id="Fill-11"></path>
                    <path d="M798.759584,38.484311 L757.039943,141.81023 C756.302387,143.637932 754.531059,144.8345 752.561923,144.8345 L702.896156,144.8345 C700.930996,144.8345 699.161657,143.641914 698.422112,141.819189 L656.47683,38.4932704 C655.186604,35.3117141 657.52253,31.8345 660.950875,31.8345 L699.609956,31.8345 C701.683463,31.8345 703.525365,33.1594848 704.186383,35.1275501 L723.055696,91.2467788 C724.528821,95.6308757 730.717534,95.6408306 732.204575,91.2607155 L751.271696,35.1136134 C751.937684,33.1535119 753.77561,31.8345 755.844147,31.8345 L794.282558,31.8345 C797.705932,31.8345 800.043847,35.3047457 798.759584,38.484311" id="Fill-13"></path>
                    <path d="M849.873947,80.0346438 L885.663074,76.3588044 C885.909744,76.3328268 884.253959,62.6246135 866.3559,64.4630328 C848.704511,66.2754744 849.873947,80.0346438 849.873947,80.0346438 L849.873947,80.0346438 Z M852.189849,102.598243 C858.271714,120.76862 895.685667,111.828307 911.860032,107.013447 C915.742838,105.85844 919.687561,108.537137 920.101008,112.56867 L922.297071,133.95728 C922.633621,137.24845 920.470514,140.25986 917.235841,140.94627 C909.254517,142.642811 894.208643,145.62225 881.266954,146.952106 C842.285098,150.955664 807.00529,135.495957 802.852845,95.0247549 C798.397804,51.6130816 830.594736,32.194778 861.236748,29.0474841 C903.404343,24.7152092 925.344994,50.2272731 927.987459,75.9781317 C928.447843,80.4642744 928.480799,85.3990314 928.407897,89.0898579 C928.341985,92.3540512 925.842328,95.0337471 922.595671,95.3674602 L852.189849,102.598243 Z" id="Fill-15"></path>
                </g>
                <g id="Group" transform="translate(676.000000, 152.000000)">
                    <rect id="Rectangle" x="0" y="0" width="321" height="141" rx="2"></rect>
                    <path d="M94.5488372,71.6379363 L81.2868217,71.6379363 L81.2868217,91.3909216 L93.7023256,91.3909216 C100.756589,91.2973055 105.177261,87.2718156 105.177261,81.1867728 C105.177261,75.382578 101.132817,71.5443202 94.5488372,71.6379363 Z M91.4449612,63.3061084 C98.2170543,63.3061084 101.132817,59.9359308 101.132817,54.9742804 C101.132817,50.3870943 97.2764858,47.578613 90.5043928,47.578613 L81.2868217,47.578613 L81.2868217,63.3061084 L91.4449612,63.3061084 Z M91.4449612,37 C104.142636,37 112.325581,43.6467391 112.419638,54.131736 C112.513695,59.0933864 110.068217,63.3997244 105.835659,66.3954378 C112.419638,69.3911512 116.370026,75.0081139 116.464083,82.5910134 C116.652196,94.1994029 107.90491,101.969535 94.3607235,101.969535 L71.0346253,101.969535 C70.4702842,101.969535 70,101.59507 70,101.033374 L70.0940568,38.0297765 C70.0940568,37.3744642 70.4702842,37 71.0346253,37 L91.4449612,37 Z M133.864599,76.3187385 L157.190698,76.3187385 C156.062016,70.8890079 152.017571,67.2379822 145.527649,67.2379822 C139.037726,67.2379822 134.993282,70.8890079 133.864599,76.3187385 Z M134.052713,84.2761022 C135.463566,89.4249846 139.884238,92.9823943 146.656331,92.9823943 C151.171059,92.8887783 154.651163,91.4845376 156.720413,89.5186007 C157.378811,89.0505205 157.943152,89.0505205 158.31938,89.4249846 L163.868734,95.1355633 C164.244961,95.5100275 164.339018,96.0717238 163.962791,96.539804 C159.824289,100.939758 153.710594,102.905695 146.09199,102.905695 C132.077519,102.999311 122.671835,93.7313227 122.671835,80.0633802 C122.671835,66.3954378 131.889406,57.2210655 145.527649,57.2210655 C159.354005,57.2210655 168.477519,65.4592774 168.383463,83.3399418 C168.383463,83.901638 168.101292,84.2761022 167.442894,84.2761022 L134.052713,84.2761022 Z M190.204651,82.2165492 C190.204651,89.7994488 190.957106,92.0462339 193.872868,92.0462339 C195.283721,92.0462339 196.976744,91.0164574 197.635142,90.4547611 C198.199483,90.173913 198.763824,90.3611451 198.951938,90.8292253 L201.8677,98.3185088 C202.149871,98.9738211 202.055814,99.5355174 201.58553,99.8163655 C200.268734,100.846142 196.600517,102.905695 191.991731,102.812079 C184.090956,102.812079 179.482171,97.1951163 179.576227,87.6462798 L179.576227,67.8932945 L173.650646,67.8932945 C173.086305,67.8932945 172.710078,67.5188303 172.710078,66.9571341 L172.710078,58.9061543 C172.710078,58.4380741 173.086305,58.0636099 173.650646,58.0636099 L179.576227,58.0636099 L179.670284,44.3956675 C179.670284,43.8339712 179.952455,43.459507 180.516796,43.459507 L189.264083,43.459507 C189.828424,43.459507 190.204651,43.8339712 190.204651,44.3956675 L190.204651,58.0636099 L199.234109,58.0636099 C199.79845,58.0636099 200.174677,58.4380741 200.174677,58.9061543 L200.174677,66.9571341 C200.174677,67.5188303 199.79845,67.8932945 199.234109,67.8932945 L190.204651,67.8932945 L190.204651,82.2165492 Z M241.465633,63.9614207 L242.876486,58.9061543 C243.064599,58.344458 243.34677,57.9699939 243.911111,57.9699939 L251.059432,57.9699939 C251.623773,57.9699939 252,58.344458 252,58.9061543 L252,101.033374 C252,101.501454 251.623773,101.969535 251.059432,101.969535 L243.817054,101.969535 C243.252713,101.969535 242.970543,101.59507 242.782429,101.033374 L241.465633,96.0717238 C238.361757,100.471678 233.564858,102.999311 227.357106,102.999311 C214.09509,103.092927 205.15969,93.6377066 205.15969,80.0633802 C205.15969,66.3954378 214.09509,57.2210655 227.357106,57.2210655 C233.564858,57.2210655 238.361757,59.6550826 241.465633,63.9614207 Z M215.788114,80.0633802 C215.788114,87.3654317 220.773127,92.420698 228.015504,92.420698 C235.445995,92.420698 240.525065,87.4590477 240.619121,80.0633802 C240.525065,72.6677128 235.445995,67.7996785 228.015504,67.7996785 C220.67907,67.7996785 215.788114,72.6677128 215.788114,80.0633802 Z" id="Beta" fill="#EFC53D" fill-rule="nonzero"></path>
                </g>
            </g>
        </g>
    </g>
</svg>