<?xml version="1.0" encoding="UTF-8"?>
<svg width="160px" height="160px" viewBox="0 0 160 160" version="1.1" xmlns="http://www.w3.org/2000/svg" xmlns:xlink="http://www.w3.org/1999/xlink">
    <!-- Generator: sketchtool 58 (101010) - https://sketch.com -->
    <title>5547371c-0779-44fd-8441-947525cc8363@1.50x</title>
    <desc>Created with sketchtool.</desc>
    <g id="Logo" stroke="none" stroke-width="1" fill="none" fill-rule="evenodd">
        <g id="Logo-/-Symbol-/-White---Transparent">
            <g id="Logo-/-Symbol-/-White">
                <g id="Logo-/-Symbol-/-Green">
                    <rect id="Rectangle" x="0" y="0" width="160" height="160"></rect>
                    <g id="Logo-/-Symbol-/-p-Shape" transform="translate(48.000000, 40.000000)" fill="#FFFFFF" fill-rule="evenodd">
                        <path d="M23.5469344,36.0307028 C23.5469344,37.9351611 24.9836301,39.5232724 26.8758993,39.6919908 C28.3512528,39.8234342 30.0751898,39.9421257 31.5162896,39.9421257 C37.4343408,39.9421257 43.2295682,38.9729756 43.2295682,29.6542253 C43.2295682,20.5753102 37.4343408,19.3668154 31.5162896,19.3668154 C29.8442224,19.3668154 28.2122808,19.4673599 26.8651339,19.5860513 C24.9811834,19.7523174 23.5469344,21.3487665 23.5469344,23.2443965 L23.5469344,36.0307028 Z M64,29.6542253 C64,53.617637 48.7840415,58.5796263 34.4151267,58.5796263 C32.6789562,58.5796263 29.9518767,58.4859483 27.4733808,58.3265486 C25.3506335,58.1906911 23.5469344,59.8602187 23.5469344,61.9922507 L23.5469344,76.3254696 C23.5469344,78.3549953 21.9056954,80 19.8808157,80 L3.66660805,80 C1.64172828,80 0,78.3549953 0,76.3254696 L0,6.23522488 C0,4.43768699 1.28255434,2.90843102 3.05151045,2.61219285 C8.42003532,1.71268821 19.8715182,0 29.2227634,0 C46.610403,0 64,5.93015842 64,29.6542253 L64,29.6542253 Z" id="Fill-1"></path>
                    </g>
                </g>
            </g>
        </g>
    </g>
</svg>