<?xml version="1.0" standalone="no"?>
<!DOCTYPE svg PUBLIC "-//W3C//DTD SVG 20010904//EN"
 "http://www.w3.org/TR/2001/REC-SVG-20010904/DTD/svg10.dtd">
<svg version="1.0" xmlns="http://www.w3.org/2000/svg"
 width="700.000000pt" height="700.000000pt" viewBox="0 0 700.000000 700.000000"
 preserveAspectRatio="xMidYMid meet">
<metadata>
Created by potrace 1.11, written by Peter Selinger 2001-2013
</metadata>
<g transform="translate(0.000000,700.000000) scale(0.100000,-0.100000)"
fill="#000000" stroke="none">
<path d="M0 3500 l0 -3500 3500 0 3500 0 0 3500 0 3500 -3500 0 -3500 0 0
-3500z m3724 1724 c374 -46 641 -160 842 -359 167 -165 266 -369 309 -635 23
-140 23 -426 0 -573 -74 -487 -339 -796 -779 -907 -189 -48 -250 -54 -568 -54
-283 -1 -298 -2 -324 -22 -15 -11 -37 -33 -48 -48 -20 -26 -21 -43 -26 -394
-6 -409 -4 -402 -78 -452 l-35 -25 -366 -3 c-201 -2 -385 0 -409 3 -55 8 -117
62 -132 113 -13 47 -13 3090 -1 3145 10 43 41 81 83 103 40 21 393 73 706 104
304 31 599 32 826 4z"/>
<path d="M3330 4401 c-93 -7 -138 -26 -174 -74 -20 -27 -21 -41 -24 -366 -3
-337 -3 -337 20 -371 50 -73 108 -89 330 -90 294 0 428 73 489 270 24 76 28
254 9 335 -38 155 -136 249 -297 283 -69 15 -247 22 -353 13z"/>
</g>
</svg>
