<?xml version="1.0" encoding="utf-8"?>
<!-- Generator: Adobe Illustrator 22.1.0, SVG Export Plug-In . SVG Version: 6.00 Build 0)  -->
<svg version="1.1" id="Regular" xmlns="http://www.w3.org/2000/svg" xmlns:xlink="http://www.w3.org/1999/xlink" x="0px" y="0px"
	 viewBox="0 0 24 24" style="enable-background:new 0 0 24 24;" xml:space="preserve">
<title>christmas-bells</title>
<g>
	<path d="M5.42,23.989c-0.586,0-1.145-0.186-1.619-0.538c-0.584-0.434-0.964-1.069-1.071-1.789
		c-0.091-0.614,0.034-1.238,0.345-1.769L1.348,19.13c-1.088-0.446-1.62-1.712-1.178-2.818c0.276-0.612,0.789-1.044,1.413-1.201
		c0.545-0.163,0.994-0.576,1.216-1.128l1.221-2.763c0.465-1.01,1.204-1.822,2.115-2.362C4.871,8.453,3.921,7.301,3.823,5.908
		C3.821,5.891,3.821,5.873,3.821,5.856v-2.68c0.103-1.792,1.567-3.179,3.333-3.179c0.055,0,0.11,0.001,0.166,0.004L7.336,0
		c0.862,0,1.703,0.31,2.366,0.874l1.659,1.463c0.232-0.057,0.469-0.085,0.707-0.085c0.238,0,0.475,0.029,0.707,0.085l1.65-1.454
		c0.672-0.574,1.523-0.887,2.402-0.887l0.038,0c0.034-0.003,0.093-0.004,0.15-0.004c1.749,0,3.198,1.378,3.3,3.137l-0.004,2.724
		c0,0.019-0.001,0.038-0.002,0.057c-0.074,1.055-0.666,2.018-1.553,2.581c0.63,0.609,1.121,1.346,1.436,2.159l1.068,2.76
		c0.217,0.63,0.681,1.12,1.278,1.358c0.593,0.201,1.08,0.673,1.316,1.286c0.213,0.552,0.198,1.154-0.042,1.696
		s-0.676,0.957-1.228,1.17l-1.746,0.676c0.125,0.341,0.181,0.705,0.162,1.072c-0.037,0.723-0.354,1.389-0.892,1.874
		c-0.499,0.449-1.143,0.697-1.815,0.697c-0.768,0-1.502-0.326-2.015-0.895c-0.214-0.237-0.384-0.512-0.502-0.81
		c-0.033,0.005-0.067,0.007-0.102,0.007c-0.308,0-0.589-0.193-0.699-0.48c-0.072-0.186-0.068-0.39,0.013-0.573
		c0.081-0.183,0.229-0.324,0.416-0.396l6.64-2.57c0.179-0.069,0.32-0.204,0.397-0.378c0.077-0.175,0.082-0.369,0.013-0.548
		c-0.077-0.198-0.236-0.351-0.437-0.42c-1.032-0.41-1.816-1.228-2.167-2.25l-1.058-2.732c-0.346-0.892-0.98-1.664-1.793-2.185
		c-0.006,0-0.012,0-0.019,0c-0.071,0-0.142-0.002-0.213-0.007c-0.003,0-0.005,0-0.008,0c-0.079,0-0.159-0.003-0.24-0.009
		l1.129,3.835c0.162,0.547-0.152,1.124-0.699,1.285c-0.095,0.028-0.194,0.042-0.293,0.042c-0.142,0-0.279-0.028-0.408-0.084
		l-0.965-0.407l-0.47,0.707c-0.194,0.289-0.516,0.461-0.864,0.461c-0.205,0-0.403-0.06-0.573-0.174
		c-0.191-0.127-0.335-0.317-0.408-0.534l-0.816-2.446l-0.817,2.45c-0.123,0.373-0.455,0.647-0.846,0.698
		c-0.046,0.006-0.092,0.009-0.138,0.009c-0.344,0-0.664-0.171-0.857-0.457l-0.474-0.711l-0.969,0.408
		c-0.127,0.054-0.263,0.082-0.402,0.082c-0.416,0-0.79-0.247-0.953-0.63c-0.094-0.22-0.109-0.469-0.04-0.699l0.889-2.984
		c-0.947,0.345-1.73,1.058-2.159,1.99l-1.206,2.73c-0.385,0.96-1.19,1.69-2.201,1.991c-0.206,0.052-0.354,0.173-0.431,0.343
		c-0.126,0.315,0.048,0.712,0.386,0.851l8.962,3.964c0.104,0.05,0.205,0.073,0.309,0.073c0.264,0,0.499-0.146,0.613-0.381
		c0.061-0.142,0.05-0.331-0.037-0.49c-0.471-0.977-0.474-2.073-0.017-3.022l0.714-1.615c0.12-0.271,0.389-0.447,0.686-0.447
		c0.104,0,0.206,0.021,0.302,0.064c0.379,0.167,0.551,0.611,0.384,0.99l-0.724,1.637c-0.266,0.554-0.268,1.174-0.01,1.711
		c0.296,0.541,0.323,1.202,0.066,1.797c-0.372,0.77-1.147,1.258-1.981,1.258c-0.323,0-0.636-0.071-0.929-0.21l-2.25-0.995
		c-0.091,0.289-0.23,0.563-0.411,0.807c-0.434,0.584-1.069,0.964-1.789,1.071C5.689,23.979,5.553,23.989,5.42,23.989z M4.466,20.509
		c-0.206,0.262-0.301,0.604-0.252,0.935c0.048,0.323,0.219,0.609,0.481,0.804c0.212,0.158,0.464,0.241,0.728,0.241
		c0.06,0,0.121-0.004,0.182-0.013c0.323-0.048,0.608-0.219,0.803-0.481c0.117-0.158,0.193-0.338,0.224-0.528L4.466,20.509z
		 M17.183,21.009c0.052,0.121,0.122,0.231,0.209,0.328c0.217,0.24,0.514,0.382,0.838,0.399c0.021,0.001,0.042,0.001,0.062,0.001
		c0.305,0,0.585-0.108,0.811-0.312c0.24-0.217,0.382-0.514,0.399-0.838c0.008-0.155-0.013-0.308-0.063-0.452L17.183,21.009z
		 M9.194,12.054c0.341,0,0.66,0.167,0.853,0.447l0.167,0.251l0.957-2.869c0.103-0.307,0.347-0.551,0.651-0.653
		c0.107-0.036,0.218-0.054,0.33-0.054c0.445,0,0.84,0.283,0.982,0.705l0.957,2.868l0.159-0.24c0.201-0.289,0.522-0.457,0.863-0.457
		c0.14,0,0.277,0.028,0.407,0.083l0.414,0.174l-1.153-3.917c-0.136-0.09-0.265-0.187-0.383-0.29L13.88,7.64
		c-0.52,0.397-1.152,0.612-1.811,0.612c-0.659,0-1.291-0.215-1.811-0.612L9.744,8.099C9.694,8.142,9.645,8.182,9.596,8.22
		l-1.219,4.091l0.414-0.175C8.917,12.082,9.054,12.054,9.194,12.054z M5.321,5.827C5.4,6.772,6.2,7.511,7.15,7.511
		c0.039,0,0.079-0.001,0.118-0.004c0.008,0,0.02-0.001,0.028-0.001c0.55,0,1.054-0.185,1.457-0.534l0.573-0.512
		C9.157,6.08,9.069,5.668,9.069,5.252c0-0.001,0-0.001,0-0.002H7.567c-0.414,0-0.75-0.336-0.75-0.75s0.336-0.75,0.75-0.75h1.909
		c0.136-0.234,0.303-0.449,0.496-0.638L8.721,2.008C8.336,1.682,7.84,1.499,7.329,1.499c0,0-0.056,0-0.062,0
		C7.233,1.497,7.2,1.497,7.167,1.497c-0.98,0-1.791,0.757-1.847,1.722L5.321,5.827z M15.389,6.976
		c0.389,0.338,0.895,0.526,1.419,0.526c0.008,0,0.023,0,0.031,0.001c0.04,0.002,0.08,0.004,0.12,0.004c0.008,0,0.015,0,0.023,0
		c0.062-0.016,0.126-0.025,0.191-0.025c0.023,0,0.045,0.001,0.068,0.003c0.845-0.126,1.501-0.817,1.571-1.662l0.005-2.652
		c-0.055-0.931-0.857-1.678-1.825-1.678c-0.032,0-0.064,0.001-0.096,0.002l-0.049,0c-0.542,0-1.039,0.18-1.438,0.521l-1.243,1.096
		c0.193,0.189,0.36,0.404,0.496,0.638h1.905c0.414,0,0.75,0.336,0.75,0.75s-0.336,0.75-0.75,0.75h-1.498c0,0.001,0,0.001,0,0.002
		c0,0.416-0.088,0.828-0.257,1.209L15.389,6.976z M12.069,3.752c-0.827,0-1.5,0.673-1.5,1.5s0.673,1.5,1.5,1.5s1.5-0.673,1.5-1.5
		S12.896,3.752,12.069,3.752z"/>
</g>
</svg>
