<?xml version="1.0" encoding="utf-8"?>
<!-- Generator: Adobe Illustrator 22.1.0, SVG Export Plug-In . SVG Version: 6.00 Build 0)  -->
<svg version="1.1" id="Layer_1" xmlns="http://www.w3.org/2000/svg" xmlns:xlink="http://www.w3.org/1999/xlink" x="0px" y="0px"
	 viewBox="0 0 24 24" style="enable-background:new 0 0 24 24;" xml:space="preserve">
<title>read-human</title>
<g>
	<path d="M12.5,24.001c-0.074,0-0.148-0.011-0.219-0.033L5.37,21.855c-0.708-0.262-1.15-0.917-1.119-1.636l0-0.341
		c-0.454-0.113-0.87-0.302-1.217-0.555C2.363,18.835,1.996,18.166,2,17.437v-0.896c0-0.582,0.238-1.127,0.69-1.576
		c0.397-0.396,0.943-0.688,1.56-0.841v-1.172c-0.014-0.179,0.003-0.357,0.051-0.531c0.185-0.68,0.807-1.156,1.511-1.156
		c0.139,0,0.277,0.019,0.412,0.055c0.021,0.006,0.043,0.013,0.065,0.021l6.212,2.277l6.228-2.279c0.02-0.007,0.04-0.014,0.06-0.019
		c0.136-0.037,0.275-0.056,0.414-0.056c0.271,0,0.539,0.072,0.776,0.208c0.363,0.208,0.624,0.545,0.734,0.949
		c0.047,0.174,0.064,0.352,0.051,0.53v1.454c0.31,0.153,0.577,0.341,0.798,0.561c0.451,0.449,0.689,0.993,0.689,1.574v0.9
		c0.003,0.726-0.364,1.395-1.035,1.882c-0.138,0.1-0.289,0.191-0.452,0.273v0.661c0.034,0.694-0.4,1.341-1.079,1.591
		c0,0-6.963,2.12-6.965,2.12C12.643,23.991,12.572,24.001,12.5,24.001z M13.25,22.239l5.957-1.812
		c0.019-0.008,0.06-0.066,0.057-0.134l0-0.301c-0.084,0.006-0.168,0.009-0.25,0.009c-0.617,0-1.173-0.212-1.547-0.583
		c-0.296-0.293-0.459-0.669-0.459-1.059l-0.008-2.703c-0.002-0.385,0.158-0.76,0.451-1.055c0.376-0.379,0.944-0.597,1.559-0.598
		c0.084,0,0.169,0.003,0.254,0.008v-1.093c0-0.027,0.001-0.054,0.004-0.081c-0.007-0.04-0.017-0.053-0.033-0.062
		c-0.011-0.006-0.021-0.009-0.033-0.009c-0.001,0-0.003,0-0.004,0l-5.947,2.176V22.239z M5.75,20.251
		c-0.004,0.096,0.034,0.159,0.1,0.184l5.9,1.803v-7.296l-5.932-2.175l-0.005-0.001c-0.025,0-0.056,0.016-0.065,0.05
		c-0.002,0.008-0.003,0.016-0.002,0.025c0.003,0.026,0.004,0.052,0.004,0.078v1.137c0.408,0.084,0.77,0.272,1.041,0.544
		c0.293,0.294,0.454,0.67,0.452,1.057l-0.006,2.702c0,0.39-0.163,0.766-0.459,1.059c-0.268,0.265-0.625,0.448-1.028,0.531V20.251z
		 M18.521,18.352c0.071,0.07,0.236,0.146,0.49,0.149c0.506-0.002,0.978-0.141,1.322-0.391c0.27-0.196,0.418-0.432,0.417-0.665
		v-0.904c0-0.219-0.135-0.399-0.247-0.511c-0.33-0.329-0.887-0.525-1.491-0.526c-0.213,0.005-0.409,0.065-0.499,0.156
		c-0.006,0.006-0.01,0.011-0.014,0.016l0.008,2.661C18.51,18.34,18.515,18.345,18.521,18.352z M5.237,15.504
		c-0.603,0-1.16,0.196-1.489,0.524C3.635,16.14,3.5,16.321,3.5,16.541v0.9c-0.001,0.236,0.146,0.473,0.416,0.669
		c0.343,0.25,0.813,0.388,1.323,0.391c0.202,0,0.392-0.059,0.483-0.149c0.007-0.007,0.011-0.012,0.015-0.017l0.006-2.66
		c-0.003-0.004-0.008-0.01-0.015-0.017c-0.094-0.094-0.286-0.155-0.489-0.155v-0.375L5.237,15.504z"/>
	<path d="M12.512,9.751c-2.688,0-4.875-2.187-4.875-4.875s2.187-4.875,4.875-4.875c2.688,0,4.875,2.187,4.875,4.875
		S15.2,9.751,12.512,9.751z M12.512,1.501c-1.861,0-3.375,1.514-3.375,3.375s1.514,3.375,3.375,3.375
		c1.861,0,3.375-1.514,3.375-3.375S14.373,1.501,12.512,1.501z"/>
</g>
</svg>
